<svg xmlns="http://www.w3.org/2000/svg" version="1.1" xmlns:xlink="http://www.w3.org/1999/xlink" width="512" height="512" x="0" y="0" viewBox="0 0 512.019 512.019" style="enable-background:new 0 0 512 512" xml:space="preserve" class=""><g><path d="M64 320.009c-35.346 0-64-28.654-64-64s28.654-64 64-64 64 28.654 64 64c0 5.891-4.776 10.667-10.667 10.667H22.677c4.865 18.842 21.863 32.005 41.323 32 27.093 0 34.624-4.096 44.928-17.259 3.635-4.636 10.34-5.448 14.976-1.813 4.636 3.635 5.448 10.34 1.813 14.976A65.066 65.066 0 0 1 64 320.009zm-41.323-74.666h82.645c-5.891-22.816-29.162-36.537-51.978-30.646a42.667 42.667 0 0 0-30.646 30.646h-.021z" style="" fill="#f44336" data-original="#f44336"></path><path d="M192 320.009c-35.346 0-64-28.654-64-64s28.654-64 64-64 64 28.654 64 64-28.654 64-64 64zm0-106.666c-23.564 0-42.667 19.103-42.667 42.667s19.103 42.667 42.667 42.667 42.667-19.103 42.667-42.667-19.103-42.667-42.667-42.667z" style="" fill="#2196f3" data-original="#2196f3" class=""></path><path d="M138.667 320.009c-5.891 0-10.667-4.776-10.667-10.667V160.009c0-5.891 4.776-10.667 10.667-10.667s10.667 4.776 10.667 10.667v149.333c-.001 5.892-4.776 10.667-10.667 10.667z" style="" fill="#2196f3" data-original="#2196f3" class=""></path><path d="M373.333 320.009c-5.891 0-10.667-4.776-10.667-10.667v-64c0-21.099-29.867-32-42.667-32a33.536 33.536 0 0 0-33.344 15.829c-2.907 5.124-9.418 6.92-14.541 4.013-5.045-2.863-6.877-9.232-4.125-14.338A54.507 54.507 0 0 1 320 192.009c22.976 0 64 17.813 64 53.333v64c0 5.892-4.776 10.667-10.667 10.667z" style="" fill="#ffc107" data-original="#ffc107" class=""></path><path d="M309.333 320.009c-46.4 0-53.333-26.731-53.333-42.667a25.346 25.346 0 0 1 8.021-18.645c16.192-15.552 53.333-15.445 93.355-13.824 6.272.256 11.755.469 15.957.469a10.67 10.67 0 0 1 9.238 16.022 10.67 10.67 0 0 1 .896 8.683c-11.654 30.659-41.341 50.667-74.134 49.962zm19.712-54.506a93.525 93.525 0 0 0-50.219 8.533 4.052 4.052 0 0 0-1.493 3.307c0 10.539 3.797 21.333 32 21.333a56.023 56.023 0 0 0 52.587-32.277l-5.397-.235c-7.254-.256-17.152-.661-27.478-.661z" style="" fill="#ffc107" data-original="#ffc107" class=""></path><path d="M437.333 309.343a10.668 10.668 0 0 1-8.875-4.757l-64-96c-3.27-4.901-1.947-11.525 2.955-14.795s11.525-1.947 14.795 2.955l64 96c3.264 4.904 1.934 11.526-2.971 14.79a10.665 10.665 0 0 1-5.904 1.786v.021z" style="" fill="#4caf50" data-original="#4caf50" class=""></path><path d="M416 362.676c-5.891.01-10.675-4.758-10.685-10.649a10.665 10.665 0 0 1 1.405-5.309l85.333-149.333c2.946-5.119 9.483-6.882 14.603-3.936 5.119 2.946 6.882 9.483 3.936 14.603l-85.333 149.333a10.666 10.666 0 0 1-9.259 5.291z" style="" fill="#4caf50" data-original="#4caf50" class=""></path></g></svg>