<svg xmlns="http://www.w3.org/2000/svg" version="1.1" xmlns:xlink="http://www.w3.org/1999/xlink" width="512" height="512" x="0" y="0" viewBox="0 0 512 512" style="enable-background:new 0 0 512 512" xml:space="preserve" class=""><g><path fill="#ffbb16" d="M512 256c0 141.387-114.613 256-256 256-127.926 0-233.934-93.832-252.96-216.43A257.59 257.59 0 0 1 0 256c0-3.875.082-7.73.262-11.555a256.756 256.756 0 0 1 2.55-26.48 254.603 254.603 0 0 1 5.504-26.938c10.387-39.714 30.082-75.672 56.602-105.386C111.793 33.094 180.035 0 256 0c118.93 0 218.926 81.105 247.672 191.027 2.308 8.801 4.16 17.797 5.515 26.938a256.756 256.756 0 0 1 2.551 26.48c.18 3.825.262 7.68.262 11.555zm0 0" opacity="1" data-original="#ffbb16"></path><path fill="#ff931f" d="M511.738 244.445H.262a256.756 256.756 0 0 1 2.55-26.48 254.603 254.603 0 0 1 5.504-26.938h495.356c2.308 8.801 4.16 17.797 5.515 26.938a256.756 256.756 0 0 1 2.551 26.48zm0 0" opacity="1" data-original="#ff931f"></path><path fill="#2f373b" d="m460.137 201.059-.035 5.011-5.942-.043.07-9.675-6.62-.047.066-9.328-5.442-.043-.066 9.332-4.535-.036.066-9.328-5.441-.039-.067 9.328-3.37-.023-.071 9.672-5.648-.04 1.793 19.36 41.804.3 9.504-24.284zm0 0" opacity="1" data-original="#2f373b" class=""></path><path fill="#0084a6" d="M512 256c0 42.215-10.219 82.035-28.328 117.145a250.84 250.84 0 0 1-11.399 19.87 255.043 255.043 0 0 1-18.87 25.989 257.512 257.512 0 0 1-34.106 34.148 258.193 258.193 0 0 1-24.262 17.836c-19.531 12.664-40.898 22.739-63.625 29.715-2.683.828-5.383 1.61-8.11 2.352a263.276 263.276 0 0 1-11.784 2.906A257.167 257.167 0 0 1 256 512c-32.578 0-63.738-6.082-92.39-17.18a252.61 252.61 0 0 1-27.114-12.37 264.561 264.561 0 0 1-9.824-5.473C66.55 441.71 22.098 382.62 6.3 312.664a250.467 250.467 0 0 1-4.012-22.351A256.19 256.19 0 0 1 0 256c0-12.926.96-25.621 2.813-38.035h506.375a257.12 257.12 0 0 1 2.57 26.844c.16 3.71.242 7.441.242 11.191zm0 0" opacity="1" data-original="#0084a6" class=""></path><path fill="#69b8d4" d="M511.758 244.809h-486.2v-26.844h483.63a257.12 257.12 0 0 1 2.57 26.844zm0 0" opacity="1" data-original="#69b8d4" class=""></path><path fill="#757177" d="m155.105 224.477-15.32 23.55a9.844 9.844 0 0 1-5.18 4.004L68.2 274.004l-.008.012-27.504 9.097L3.04 295.57A257.59 257.59 0 0 1 0 256V98.773l42.54-20.332a9.627 9.627 0 0 1 2.35-.785 9.947 9.947 0 0 1 6.489.93l13.539 7.055 27.973 14.566a9.872 9.872 0 0 1 4.523 4.879l14.703 34.312a9.965 9.965 0 0 0 2.102 3.106l9.015 9.016a9.91 9.91 0 0 1 2.895 7.492 9.925 9.925 0 0 1-2.895 6.511 9.887 9.887 0 0 0-.219 13.77l5.965 6.355 25.04 26.653a9.906 9.906 0 0 1 1.085 12.176zm0 0" opacity="1" data-original="#757177" class=""></path><path fill="#2f373b" d="m128.98 185.648-28.246-21.144c-3.382-2.535-1.316-7.918 2.895-7.535l22.48 2.043h.02a9.925 9.925 0 0 1-2.895 6.511 9.887 9.887 0 0 0-.219 13.77zM115.168 247.43l-12.648-2.993c-4.024-.953-4.067-6.66-.063-7.675l7.856-1.992c5.718-1.45 5.675-9.594-.063-10.98l-18.75-4.536c-4.902-1.188-7.895-6.145-6.656-11.031l3.418-13.524a14.441 14.441 0 0 0-6.66-15.98l-20.524-12.106c-6.57-3.879-8.992-12.199-5.523-19l8.164-16.004a14.441 14.441 0 0 0 .91-10.894l-13.25-42.13-6.488-.929a9.627 9.627 0 0 0-2.352.785L0 98.773V256a257.59 257.59 0 0 0 3.04 39.57l37.648-12.457 27.503-9.097.008-.012 47.442-15.7c5.414-1.792 5.074-9.562-.473-10.874zm0 0" opacity="1" data-original="#2f373b" class=""></path><path fill="#757177" d="m38.387 120.008 3.086 13.191a5.619 5.619 0 0 1-3.403 6.504l-13.472 5.332c-4.914 1.95-9.555-3.36-6.97-7.969l10.388-18.523c2.504-4.473 9.203-3.527 10.37 1.465zM73.875 207.422l-5.691 16.21a7.022 7.022 0 0 1-7.957 4.571l-18.043-3.48c-6.489-1.254-7.813-9.961-1.989-13.082l23.73-12.73c5.65-3.032 12.071 2.464 9.95 8.51zm0 0" opacity="1" data-original="#757177" class=""></path><path fill="#ffffff" d="M150.414 252.992 6.301 312.664a250.467 250.467 0 0 1-4.012-22.351l144.887-47.25c2.734-.899 5.683.597 6.582 3.343a5.218 5.218 0 0 1-3.344 6.586zm0 0" opacity="1" data-original="#ffffff"></path><path fill="#f1eee9" d="M373.008 186.934h74.898a3.856 3.856 0 0 0 0-7.71h-74.898a3.856 3.856 0 0 0 0 7.71zm0 0" opacity="1" data-original="#f1eee9"></path><path fill="#69b8d4" d="M483.672 373.145a250.84 250.84 0 0 1-11.399 19.87c-15.77 2.583-37.543-9.452-44.941 4.41-4.254 7.973 9.695 14.684 26.07 21.579a257.512 257.512 0 0 1-34.105 34.148 258.193 258.193 0 0 1-24.262 17.836c-21.84 14.157-45.976 25.078-71.734 32.067-108.473 8.945-100.946-19.664-94.406-31.93 12.414-23.238-103.934-25.898-89.637-52.7 14.262-26.757 84.289-14.519 94.215-33.14 9.914-18.64-37.274-19.863-21.746-48.965 15.496-29.12 81.875-32.86 44.632-52.699-28.808-15.36-8.164-30.82 22.137-40.703 8.902-2.926 19.082-4.285 29.844-3.375.02-.012.082-.02.113 0a1253.75 1253.75 0 0 1 148.23-6.113c-14.18 26.582-48.46 14.754-59.015 34.554-10.555 19.801 87.453 6.98 87.453 34.7 0 16.34-63.242 9.593-73.797 29.394-8.808 16.52 57.426 25.14 72.348 41.067zm0 0" opacity="1" data-original="#69b8d4" class=""></path><g fill="#0084a6"><path d="M396.89 428.586c0-6.629-18.109-12-40.449-12s-40.449 5.371-40.449 12 18.11 12.004 40.45 12.004 40.449-5.375 40.449-12.004zM369.719 342.852c0-6.204-21.946-11.23-49.02-11.23s-49.02 5.026-49.02 11.23c0 6.207 21.946 11.234 49.02 11.234s49.02-5.027 49.02-11.234zM330.914 258.602c0-1.977-11.203-3.579-25.023-3.579-13.817 0-25.02 1.602-25.02 3.579 0 1.972 11.203 3.574 25.02 3.574 13.82 0 25.023-1.602 25.023-3.574zM386.57 282.598c0-2.82-11.66-5.106-26.039-5.106-14.383 0-26.043 2.285-26.043 5.106 0 2.82 11.66 5.109 26.043 5.109 14.38 0 26.04-2.289 26.04-5.11zm0 0" fill="#0084a6" opacity="1" data-original="#0084a6" class=""></path></g><path fill="#69b8d4" d="M331.41 500.703c-2.683.828-5.383 1.61-8.11 2.352a263.276 263.276 0 0 1-11.784 2.906A257.167 257.167 0 0 1 256 512c-32.578 0-63.738-6.082-92.39-17.18a252.61 252.61 0 0 1-27.114-12.37c31.848-3.552 81.649-.575 92.399-11.325zm0 0" opacity="1" data-original="#69b8d4" class=""></path></g></svg>